<svg width="1674" height="286" viewBox="0 0 1674 286" fill="none" xmlns="http://www.w3.org/2000/svg">
<path d="M135.06 282H90.29L34.42 31.14V282H0.38V4.49998H63.65L114.34 233.16L163.92 4.49998H228.3V282H191.3V32.25L135.06 282ZM368.409 285.7C343.002 285.7 323.022 277.93 308.469 262.39C293.915 246.603 286.639 222.8 286.639 190.98V95.52C286.639 63.9467 293.915 40.2667 308.469 24.48C323.022 8.69332 343.002 0.799981 368.409 0.799981C394.062 0.799981 414.042 8.69332 428.349 24.48C442.902 40.2667 450.179 63.9467 450.179 95.52V190.98C450.179 222.8 442.902 246.603 428.349 262.39C414.042 277.93 394.062 285.7 368.409 285.7ZM368.409 251.66C382.222 251.66 393.075 247.22 400.969 238.34C409.109 229.213 413.179 213.427 413.179 190.98V95.52C413.179 73.32 409.232 57.6567 401.339 48.53C393.445 39.4033 382.469 34.84 368.409 34.84C354.595 34.84 343.619 39.4033 335.479 48.53C327.585 57.6567 323.639 73.32 323.639 95.52V190.98C323.639 213.427 327.585 229.213 335.479 238.34C343.372 247.22 354.349 251.66 368.409 251.66ZM578.358 282H541.358V38.54H483.268V4.49998H636.448V38.54H578.358V282ZM751.041 285.7C725.634 285.7 705.654 277.93 691.101 262.39C676.547 246.603 669.271 222.8 669.271 190.98V95.52C669.271 63.9467 676.547 40.2667 691.101 24.48C705.654 8.69332 725.634 0.799981 751.041 0.799981C776.694 0.799981 796.674 8.69332 810.981 24.48C825.534 40.2667 832.811 63.9467 832.811 95.52V190.98C832.811 222.8 825.534 246.603 810.981 262.39C796.674 277.93 776.694 285.7 751.041 285.7ZM751.041 251.66C764.854 251.66 775.707 247.22 783.601 238.34C791.741 229.213 795.811 213.427 795.811 190.98V95.52C795.811 73.32 791.864 57.6567 783.971 48.53C776.077 39.4033 765.101 34.84 751.041 34.84C737.227 34.84 726.251 39.4033 718.111 48.53C710.217 57.6567 706.271 73.32 706.271 95.52V190.98C706.271 213.427 710.217 229.213 718.111 238.34C726.004 247.22 736.981 251.66 751.041 251.66ZM960.99 282H923.99V38.54H865.9V4.49998H1019.08V38.54H960.99V282ZM1148.41 211.33C1143.97 227.117 1139.04 240.56 1133.61 251.66C1128.43 262.76 1121.9 271.27 1114 277.19C1106.36 282.863 1096.37 285.7 1084.03 285.7C1078.85 285.7 1073.8 285.207 1068.86 284.22C1064.18 283.48 1060.11 282.617 1056.65 281.63V248.7C1063.81 250.673 1070.71 251.66 1077.37 251.66C1083.79 251.66 1089.34 250.427 1094.02 247.96C1098.71 245.247 1102.9 240.437 1106.6 233.53L1034.08 4.49998H1072.19L1123.62 181.36L1170.61 4.49998H1207.98L1148.41 211.33ZM1283.2 282H1246.2V4.49998H1326.49C1348.93 4.49998 1367.31 10.79 1381.62 23.37C1395.92 35.95 1403.08 54.3267 1403.08 78.5V98.48C1403.08 123.64 1395.92 142.88 1381.62 156.2C1367.31 169.52 1348.93 176.18 1326.49 176.18H1283.2V282ZM1322.79 38.54H1283.2V142.14H1322.79C1336.11 142.14 1346.59 138.44 1354.24 131.04C1362.13 123.64 1366.08 111.553 1366.08 94.78V82.2C1366.08 66.4133 1362.13 55.19 1354.24 48.53C1346.59 41.87 1336.11 38.54 1322.79 38.54ZM1486.8 4.49998V104.4H1522.69C1549.08 104.4 1569.55 111.8 1584.11 126.6C1598.66 141.153 1605.94 160.64 1605.94 185.06V199.12C1605.94 214.907 1602.61 229.09 1595.95 241.67C1589.53 254.25 1580.16 264.117 1567.83 271.27C1555.49 278.423 1540.45 282 1522.69 282H1449.8V4.49998H1486.8ZM1517.14 138.44H1486.8V247.96H1517.14C1535.88 247.96 1549.2 243.397 1557.1 234.27C1564.99 225.143 1568.94 212.193 1568.94 195.42V188.76C1568.94 172.727 1564.99 160.393 1557.1 151.76C1549.2 142.88 1535.88 138.44 1517.14 138.44ZM1673.65 282H1636.65V4.49998H1673.65V282Z" fill="white"/>
</svg>
